<svg id="Layer_1" data-name="Layer 1" xmlns="http://www.w3.org/2000/svg" viewBox="0 0 400 190.04"><defs><style>.cls-1{fill:#007062;}.cls-2{fill:#e6cd96;}</style></defs><path class="cls-1" d="M366.7,20.43c-17-6.29-30.91-13.78-35.45-20.43h0c-4.54,6.65-18.49,14.14-35.45,20.43-20,7.43-33.3,18.47-33.3,48.22v52.74c0,29.76,13.31,40.8,33.3,48.22,17,6.3,30.91,13.79,35.45,20.43h0c4.54-6.64,18.49-14.13,35.45-20.43,20-7.42,33.3-18.46,33.3-48.22V68.65c0-29.75-13.31-40.79-33.3-48.22"/><path class="cls-2" d="M363.85,28.54c-13.59-5-24.65-10.54-32-15.91l-.6-.43-.59.43c-7.3,5.38-18.08,10.74-32,15.91-17.8,6.6-27.44,14.9-27.44,39.75v53.46c0,24.86,9.64,33.15,27.44,39.75,13.95,5.17,24.74,10.53,32,15.91l.59.44.6-.44c7.34-5.37,18.39-10.87,32-15.91,17.81-6.6,27.45-14.89,27.45-39.75V68.29C391.29,43.43,381.65,35.14,363.85,28.54Zm25.45,93.21c0,23.69-9.19,31.59-26.15,37.88-13.59,5-24.31,10.34-31.87,15.75-7.44-5.35-18.19-10.65-31.94-15.75-17-6.29-26.15-14.19-26.15-37.88V68.29c0-23.69,9.19-31.59,26.15-37.88,13.76-5.1,24.5-10.4,31.94-15.74,7.56,5.4,18.28,10.7,31.87,15.74,17,6.29,26.15,14.19,26.15,37.88Z"/><path class="cls-2" d="M363,135a2.23,2.23,0,0,0-1-.19h0a2.44,2.44,0,0,0-.58.09l-.12.05a3.64,3.64,0,0,0-.36.16h0a1.81,1.81,0,0,0-.23.18l-.11.06s0,.05-.06.07l-.09.07v0a2.29,2.29,0,0,0-.38.49,4,4,0,0,1-2.3.33,23.88,23.88,0,0,1-7.57-2c-.91-.37-1.85-.8-2.83-1.26,0,.05-1.85,1.84-2.35,2.42a5,5,0,0,0-1.21,2.08l.86.42c5.41,2.6,10,3.93,13.44,3.93a10.35,10.35,0,0,0,2.38-.25,5.23,5.23,0,0,0,3.74-2.76C364.51,138.36,365.16,136,363,135Z"/><path class="cls-2" d="M315.1,133.1c-1,.47-1.92.89-2.83,1.26a23.88,23.88,0,0,1-7.57,2,4.06,4.06,0,0,1-2.3-.33,1.79,1.79,0,0,0-.38-.48v0l-.09-.07s0,0-.06-.07l-.11-.06c-.08-.06-.15-.13-.23-.18h0a3.64,3.64,0,0,0-.36-.16l-.12-.05a2.44,2.44,0,0,0-.58-.09h0a2.25,2.25,0,0,0-1,.19c-2.16.92-1.51,3.33-1.25,3.91A5.23,5.23,0,0,0,302,141.7a10.94,10.94,0,0,0,2.38.25c3.45,0,8-1.33,13.43-3.93l.87-.42a5,5,0,0,0-1.21-2.08C317,134.94,315.12,133.15,315.1,133.1Z"/><path class="cls-2" d="M372.63,100.16a39.09,39.09,0,0,0-12.79,3.21c-5.41,2.31-10.52,5.87-16.63,10.49-4.33,3.27-8.27,6.41-12,9.17-3.69-2.76-7.63-5.9-12-9.17-6.11-4.62-11.22-8.18-16.63-10.49a39.09,39.09,0,0,0-12.79-3.21c-.76,0-1.51-.08-2.24-.08a20.28,20.28,0,0,0-6,.81l-1.71.55-.11,0a.12.12,0,0,0,.05.23c1.49-.15,9.5,1.23,16.74,4.54a71.45,71.45,0,0,1,12.5,7.27,77.65,77.65,0,0,1,6.83,5.08q5.37,4.44,10.26,8.06c-.32.21-.64.44-1,.64-2.67,1.73-5.19,3.22-7.54,4.45-2.84-3.08-2.36-5.07-2.36-5.07a1.92,1.92,0,0,0-2.11-.3c-1.71,1.38,0,3.47,2.21,5.65.18.18,1.24,1.25,1.25,1.24a24.32,24.32,0,0,1,2.25,2.57,2.56,2.56,0,0,1,.22.38,4.74,4.74,0,0,1-.07,5.22c1.4,1.61,2.22.89,2.22.89,1.59-1,1.33-3.47,0-5.87a113.42,113.42,0,0,0,10-6.18,116.5,116.5,0,0,0,10,6.18c-1.31,2.4-1.57,4.91,0,5.87,0,0,.82.72,2.22-.89a4.72,4.72,0,0,1-.07-5.22,2.56,2.56,0,0,1,.22-.38,25.61,25.61,0,0,1,2.24-2.57s1.08-1.06,1.26-1.24c2.19-2.18,3.92-4.27,2.21-5.65a1.92,1.92,0,0,0-2.11.3s.48,2-2.36,5.07c-2.35-1.23-4.87-2.72-7.54-4.45-.32-.2-.64-.43-1-.64q4.89-3.61,10.26-8.06a77.65,77.65,0,0,1,6.83-5.08,71.45,71.45,0,0,1,12.5-7.27c7.24-3.31,15.25-4.69,16.74-4.54a.12.12,0,0,0,.05-.23l-.11,0-1.71-.55a20.28,20.28,0,0,0-6-.81C374.14,100.08,373.39,100.11,372.63,100.16Z"/><path class="cls-2" d="M306,66.88a.15.15,0,0,0,.25.14,30.77,30.77,0,0,1,12.11-7,.14.14,0,0,1,.14.24,22.72,22.72,0,0,0-7.74,16.51c0,.24,0,.47,0,.71s.23.2.28.08a30.56,30.56,0,0,1,8.51-10.23.15.15,0,0,1,.24.17,27.46,27.46,0,0,0-1.69,9.22,28.08,28.08,0,0,0,1,7.87.14.14,0,0,0,.28,0,35,35,0,0,1,6.52-14.06.15.15,0,0,1,.27.11c-.53,2-3,8.12-.56,14.72a.15.15,0,0,0,.29,0,84.43,84.43,0,0,1,4.19-12c-1.09,10.25-2.55,25.56-2.55,33.59,0,12.76,3.69,13.48,3.69,13.48h0s3.69-.72,3.69-13.48c0-8-1.46-23.34-2.55-33.59a84,84,0,0,1,4.19,12,.15.15,0,0,0,.29,0c2.4-6.6,0-12.72-.56-14.72a.15.15,0,0,1,.27-.11,35,35,0,0,1,6.52,14.06.15.15,0,0,0,.29,0,28.44,28.44,0,0,0,1-7.87,27.46,27.46,0,0,0-1.69-9.22.15.15,0,0,1,.24-.17,30.56,30.56,0,0,1,8.51,10.23c.06.12.28.06.28-.08s0-.47,0-.71A22.69,22.69,0,0,0,344,60.24a.14.14,0,0,1,.14-.24,30.77,30.77,0,0,1,12.11,7,.15.15,0,0,0,.25-.14c-1.62-6.57-7.69-11.69-15.42-13.26a.13.13,0,1,1,0-.26h0a22.62,22.62,0,0,1,14.72,4.91.15.15,0,0,0,.24-.16c-2.22-5.55-8.46-9.64-15.77-9.59-.49,0-1,0-1.46.07a.13.13,0,0,1-.1-.24,14,14,0,0,1,7.2-2.43.14.14,0,0,0,.07-.25A12.59,12.59,0,0,0,339.72,44a12.23,12.23,0,0,0-6.48,1.86l-.22-.09a14.28,14.28,0,0,0-1.45-3.88,3.62,3.62,0,0,0-.2-.34.14.14,0,0,0-.13-.07.13.13,0,0,0-.12.07c-.07.12-.16.26-.2.34a14.28,14.28,0,0,0-1.45,3.88l-.22.09A12.23,12.23,0,0,0,322.77,44a12.59,12.59,0,0,0-6.32,1.67.14.14,0,0,0,.07.25,14,14,0,0,1,7.2,2.43.13.13,0,0,1-.1.24c-.48,0-1-.07-1.46-.07-7.3-.05-13.55,4-15.77,9.59a.15.15,0,0,0,.24.16,22.62,22.62,0,0,1,14.72-4.91h0a.13.13,0,1,1,0,.26C313.66,55.19,307.59,60.31,306,66.88Z"/><path class="cls-1" d="M48.65,35.4a5.46,5.46,0,0,0,3.87-1.46A5.06,5.06,0,0,0,54,30.21a5.18,5.18,0,0,0-1.51-3.83,5.46,5.46,0,0,0-3.87-1.46A5.13,5.13,0,0,0,45,26.38a5.27,5.27,0,0,0-1.51,3.83A5.06,5.06,0,0,0,45,33.94a5.13,5.13,0,0,0,3.69,1.46"/><path class="cls-1" d="M123.05,35.4a5.46,5.46,0,0,0,3.87-1.46,5.06,5.06,0,0,0,1.51-3.73,5.18,5.18,0,0,0-1.51-3.83,5.46,5.46,0,0,0-3.87-1.46,5.13,5.13,0,0,0-3.69,1.46,5.27,5.27,0,0,0-1.51,3.83,5.06,5.06,0,0,0,1.51,3.73,5.13,5.13,0,0,0,3.69,1.46"/><path class="cls-1" d="M134.29,35.4a5.49,5.49,0,0,0,3.88-1.46,5.1,5.1,0,0,0,1.51-3.73,5.22,5.22,0,0,0-1.51-3.83,5.49,5.49,0,0,0-3.88-1.46,5.13,5.13,0,0,0-3.68,1.46,5.27,5.27,0,0,0-1.51,3.83,5.06,5.06,0,0,0,1.51,3.73,5.13,5.13,0,0,0,3.68,1.46"/><path class="cls-1" d="M197.31,43.3c-1.39.86-6.09,3.24-19.24,6.08a25.57,25.57,0,0,0-13,6.75q-6.76,6.75-6.75,17.57V95.48a.37.37,0,0,0,.36.37h28.64a10.47,10.47,0,0,1-10.47,10.47H159.42a.27.27,0,0,0-.25.37l4,9.71a.78.78,0,0,0,.74.49l13,0a21,21,0,0,0,20.95-21V43.59a.33.33,0,0,0-.5-.29m-10.08,42H168.85V73.94q0-6.81,4.3-10.58a14.29,14.29,0,0,1,2.93-1.91,21.53,21.53,0,0,1,5.2-1.75l5.95-1.26Z"/><path class="cls-1" d="M147.14,43.3c-1.39.86-6.1,3.24-19.25,6.08a25.61,25.61,0,0,0-13,6.75q-6.75,6.75-6.75,17.57V85.32H89.67V25.18a.28.28,0,0,0-.37-.26l-10,3.64a.26.26,0,0,0-.18.25V95.53a.31.31,0,0,0,.31.32h67.87a.33.33,0,0,0,.32-.32V43.59a.33.33,0,0,0-.5-.29m-10.08,42H118.68V73.94q0-6.81,4.3-10.58a14,14,0,0,1,2.93-1.91,21.6,21.6,0,0,1,5.19-1.75l6-1.26Z"/><path class="cls-1" d="M68,43.3c-1.39.86-6.1,3.24-19.25,6.08a25.57,25.57,0,0,0-13,6.75Q29,62.88,29,73.7V85.32H19.7a9.89,9.89,0,0,1-5.1-2.13q-3.93-3.12-3.92-9.49V54a.25.25,0,0,0-.32-.24L.18,56.62a.25.25,0,0,0-.18.24V75.44Q0,85.31,6.33,91a18.38,18.38,0,0,0,10.82,4.87H68.22a.31.31,0,0,0,.31-.32V43.59a.33.33,0,0,0-.5-.29M58,85.32H39.57V73.94q0-6.81,4.3-10.58a13.76,13.76,0,0,1,2.93-1.91A21.6,21.6,0,0,1,52,59.7l6-1.26Z"/><path class="cls-1" d="M218.53,27.36l-10,3.64a.26.26,0,0,0-.18.25V95.53a.31.31,0,0,0,.31.32h9.9a.32.32,0,0,0,.32-.32V27.62a.28.28,0,0,0-.37-.26"/><path class="cls-1" d="M208.66,27.75l10.09-3.87a.22.22,0,0,0,.15-.21v-4a.23.23,0,0,0-.3-.21l-10.09,3.87a.24.24,0,0,0-.15.21v3.95a.22.22,0,0,0,.3.21"/><path class="cls-1" d="M218.9,10.42v4a.53.53,0,0,1-.22.43,15,15,0,0,1-3.82,1.91c-3.56,1-2.88,5.12-.48,4.4s-4.1,4.49-4,4.42a13.52,13.52,0,0,0,.24-1.9,5.39,5.39,0,0,1-2.26-4c0-2.41,1.31-5,5.82-6.52,2.84-.94,4-2.22,4.48-2.88a.13.13,0,0,1,.24.08"/><path class="cls-1" d="M13.9,152.92h15l-7.45-20.37ZM33,164.86l-2.75-7.78H12.6l-2.81,7.78H2.88L15.45,133.6c1.06-2.63,2.89-4.52,6.12-6.29a10.24,10.24,0,0,0,2.46-1.9l15.85,39.45Z"/><path class="cls-1" d="M79.11,164.86l-9-29.72-9,29.72H55.12l-8.9-31.69a4.76,4.76,0,0,1,4.58-6l7.59,31.8,8.24-28.37a4.78,4.78,0,0,1,4.58-3.43h1.31l9.24,31.8,6.72-28.14a4.76,4.76,0,0,1,4.64-3.66h2.52L85,164.86Z"/><path class="cls-1" d="M192.63,164.86v-28a9.78,9.78,0,0,1,9.78-9.78h15a5.09,5.09,0,0,1-5,4.27H199v12.54h15.58v4.28H199v16.65Z"/><path class="cls-1" d="M120.48,131.34c-3.4,0-5.83,1-7.21,3-1.16,1.72-1.73,4.33-1.73,8V150c0,4.21.77,7.09,2.36,8.79,1.37,1.47,3.59,2.22,6.58,2.22,3.4,0,5.83-1,7.2-3,1.17-1.72,1.74-4.33,1.74-8v-16.4a5.34,5.34,0,0,1,.77-2.81,13.53,13.53,0,0,1-3.24.53Zm0,33.89a23,23,0,0,1-7.58-1.07,11.44,11.44,0,0,1-4.94-3.34,10,10,0,0,1-2.13-4,24,24,0,0,1-.67-6.24v-9.27a23.13,23.13,0,0,1,.79-6.68,10,10,0,0,1,2.57-4.18,12.65,12.65,0,0,1,4.85-2.84,23.87,23.87,0,0,1,7.11-.91c9.15,0,13.38-1.47,15.31-2.68v26.56a23.18,23.18,0,0,1-.78,6.68,10,10,0,0,1-2.58,4.18,12.64,12.64,0,0,1-4.81,2.84,23.49,23.49,0,0,1-7.14.91"/><path class="cls-1" d="M156.89,152.92h15l-7.46-20.37ZM176,164.86l-2.75-7.78H155.59l-2.81,7.78h-6.9l12.56-31.26c1.06-2.63,2.89-4.51,6.13-6.29a10,10,0,0,0,2.45-1.9l15.86,39.45Z"/><rect class="cls-1" x="125.88" y="154.04" width="4.23" height="16.22" transform="translate(-77.18 138.07) rotate(-45.02)"/></svg>