<svg id="Layer_1" data-name="Layer 1" xmlns="http://www.w3.org/2000/svg" viewBox="0 0 400 190.04"><defs><style>.cls-1{fill:#fff;}</style></defs><path class="cls-1" d="M363.15,30.41c-13.59-5-24.31-10.34-31.87-15.74C323.84,20,313.1,25.31,299.34,30.41c-17,6.29-26.15,14.19-26.15,37.88v53.46c0,23.69,9.19,31.59,26.15,37.88,13.75,5.1,24.5,10.4,31.94,15.75,7.56-5.41,18.28-10.71,31.87-15.75,17-6.29,26.15-14.19,26.15-37.88V68.29C389.3,44.6,380.11,36.7,363.15,30.41Zm-41.79,23h0a22.62,22.62,0,0,0-14.72,4.91.15.15,0,0,1-.24-.16c2.22-5.55,8.47-9.64,15.77-9.59.49,0,1,0,1.46.07a.13.13,0,0,0,.1-.24,14,14,0,0,0-7.2-2.43.14.14,0,0,1-.07-.25A12.59,12.59,0,0,1,322.77,44a12.23,12.23,0,0,1,6.48,1.86l.22-.09a14.28,14.28,0,0,1,1.45-3.88c0-.08.13-.22.2-.34a.13.13,0,0,1,.12-.07.14.14,0,0,1,.13.07,3.62,3.62,0,0,1,.2.34A14.28,14.28,0,0,1,333,45.77l.22.09A12.23,12.23,0,0,1,339.72,44,12.59,12.59,0,0,1,346,45.67a.14.14,0,0,1-.07.25,14,14,0,0,0-7.2,2.43.13.13,0,0,0,.1.24c.48,0,1-.07,1.46-.07,7.31-.05,13.55,4,15.77,9.59a.15.15,0,0,1-.24.16,22.62,22.62,0,0,0-14.72-4.91h0a.13.13,0,1,0,0,.26c7.73,1.57,13.8,6.69,15.42,13.26a.15.15,0,0,1-.25.14,30.77,30.77,0,0,0-12.11-7,.14.14,0,0,0-.14.24,22.69,22.69,0,0,1,7.74,16.51c0,.24,0,.47,0,.71s-.22.2-.28.08A30.56,30.56,0,0,0,343,67.31a.15.15,0,0,0-.24.17,27.46,27.46,0,0,1,1.69,9.22,28.44,28.44,0,0,1-1,7.87.15.15,0,0,1-.29,0,35,35,0,0,0-6.52-14.06.15.15,0,0,0-.27.11c.54,2,3,8.12.56,14.72a.15.15,0,0,1-.29,0,84,84,0,0,0-4.19-12c1.09,10.25,2.55,25.56,2.55,33.59,0,12.76-3.69,13.48-3.69,13.48h0s-3.69-.72-3.69-13.48c0-8,1.46-23.34,2.55-33.59a84.43,84.43,0,0,0-4.19,12,.15.15,0,0,1-.29,0c-2.4-6.6,0-12.72.56-14.72a.15.15,0,0,0-.27-.11,35,35,0,0,0-6.52,14.06.14.14,0,0,1-.28,0,28.08,28.08,0,0,1-1-7.87,27.46,27.46,0,0,1,1.69-9.22.15.15,0,0,0-.24-.17A30.56,30.56,0,0,0,311,77.54c-.05.12-.28.06-.28-.08s0-.47,0-.71a22.72,22.72,0,0,1,7.74-16.51.14.14,0,0,0-.14-.24,30.77,30.77,0,0,0-12.11,7,.15.15,0,0,1-.25-.14c1.62-6.57,7.69-11.69,15.42-13.26A.13.13,0,1,0,321.36,53.36ZM317.79,138c-5.4,2.6-10,3.93-13.43,3.93a10.94,10.94,0,0,1-2.38-.25,5.23,5.23,0,0,1-3.74-2.76c-.26-.58-.91-3,1.25-3.91a2.25,2.25,0,0,1,1-.19h0a2.44,2.44,0,0,1,.58.09l.12.05a3.64,3.64,0,0,1,.36.16h0c.08.05.15.12.23.18l.11.06s0,.05.06.07l.09.07v0a1.79,1.79,0,0,1,.38.48,4.06,4.06,0,0,0,2.3.33,23.88,23.88,0,0,0,7.57-2c.91-.37,1.85-.79,2.83-1.26,0,.05,1.85,1.84,2.35,2.42a5,5,0,0,1,1.21,2.08Zm46.46.92a5.23,5.23,0,0,1-3.74,2.76,10.35,10.35,0,0,1-2.38.25c-3.45,0-8-1.33-13.44-3.93l-.86-.42a5,5,0,0,1,1.21-2.08c.5-.58,2.33-2.37,2.35-2.42,1,.46,1.92.89,2.83,1.26a23.88,23.88,0,0,0,7.57,2,4,4,0,0,0,2.3-.33,2.29,2.29,0,0,1,.38-.49v0l.09-.07s0,0,.06-.07l.11-.06a1.81,1.81,0,0,1,.23-.18h0a3.64,3.64,0,0,1,.36-.16l.12-.05a2.44,2.44,0,0,1,.58-.09h0a2.23,2.23,0,0,1,1,.19C365.16,136,364.51,138.36,364.25,138.94Zm18.37-37.5.11,0a.12.12,0,0,1-.05.23c-1.49-.15-9.5,1.23-16.74,4.54a71.45,71.45,0,0,0-12.5,7.27,77.65,77.65,0,0,0-6.83,5.08q-5.37,4.44-10.26,8.06c.32.21.64.44,1,.64,2.67,1.73,5.19,3.22,7.54,4.45,2.84-3.08,2.36-5.07,2.36-5.07a1.92,1.92,0,0,1,2.11-.3c1.71,1.38,0,3.47-2.21,5.65-.18.18-1.24,1.25-1.26,1.24a25.61,25.61,0,0,0-2.24,2.57,2.56,2.56,0,0,0-.22.38,4.72,4.72,0,0,0,.07,5.22c-1.4,1.61-2.22.89-2.22.89-1.59-1-1.33-3.47,0-5.87a116.5,116.5,0,0,1-10-6.18,113.42,113.42,0,0,1-10,6.18c1.31,2.4,1.57,4.91,0,5.87,0,0-.82.72-2.22-.89a4.74,4.74,0,0,0,.07-5.22,2.56,2.56,0,0,0-.22-.38,24.32,24.32,0,0,0-2.25-2.57s-1.07-1.06-1.25-1.24c-2.19-2.18-3.92-4.27-2.21-5.65a1.92,1.92,0,0,1,2.11.3s-.48,2,2.36,5.07c2.35-1.23,4.87-2.72,7.54-4.45.32-.2.64-.43,1-.64q-4.89-3.61-10.26-8.06a77.65,77.65,0,0,0-6.83-5.08,71.45,71.45,0,0,0-12.5-7.27c-7.24-3.31-15.25-4.69-16.74-4.54a.12.12,0,0,1-.05-.23l.11,0,1.71-.55a20.28,20.28,0,0,1,6-.81c.73,0,1.48,0,2.24.08a38.84,38.84,0,0,1,12.79,3.21c5.41,2.31,10.52,5.87,16.63,10.49,4.33,3.27,8.27,6.41,12,9.17,3.7-2.76,7.65-5.9,12-9.17,6.11-4.62,11.22-8.18,16.63-10.49a38.84,38.84,0,0,1,12.79-3.21c.76,0,1.51-.08,2.24-.08a20.28,20.28,0,0,1,6,.81Z"/><path class="cls-1" d="M366.7,20.43c-17-6.29-30.91-13.78-35.45-20.43h0c-4.54,6.65-18.49,14.14-35.45,20.43-20,7.43-33.3,18.47-33.3,48.22v52.74c0,29.76,13.31,40.8,33.3,48.22,17,6.3,30.91,13.79,35.45,20.43h0c4.54-6.64,18.49-14.13,35.45-20.43,20-7.42,33.3-18.46,33.3-48.22V68.65C400,38.9,386.69,27.86,366.7,20.43Zm24.59,101.32c0,24.86-9.64,33.15-27.45,39.75-13.58,5-24.63,10.54-32,15.91l-.6.44-.59-.44c-7.3-5.38-18.09-10.74-32-15.91-17.8-6.6-27.44-14.89-27.44-39.75V68.29c0-24.85,9.64-33.15,27.44-39.75,14-5.17,24.74-10.53,32-15.91l.59-.43.6.43c7.33,5.37,18.39,10.87,32,15.91,17.8,6.6,27.44,14.89,27.44,39.75Z"/><path class="cls-1" d="M48.65,35.4a5.46,5.46,0,0,0,3.87-1.46A5.06,5.06,0,0,0,54,30.21a5.18,5.18,0,0,0-1.51-3.83,5.46,5.46,0,0,0-3.87-1.46A5.13,5.13,0,0,0,45,26.38a5.27,5.27,0,0,0-1.51,3.83A5.06,5.06,0,0,0,45,33.94,5.13,5.13,0,0,0,48.65,35.4Z"/><path class="cls-1" d="M123.05,35.4a5.46,5.46,0,0,0,3.87-1.46,5.06,5.06,0,0,0,1.51-3.73,5.18,5.18,0,0,0-1.51-3.83,5.46,5.46,0,0,0-3.87-1.46,5.13,5.13,0,0,0-3.69,1.46,5.27,5.27,0,0,0-1.51,3.83,5.06,5.06,0,0,0,1.51,3.73A5.13,5.13,0,0,0,123.05,35.4Z"/><path class="cls-1" d="M134.29,35.4a5.49,5.49,0,0,0,3.88-1.46,5.1,5.1,0,0,0,1.51-3.73,5.22,5.22,0,0,0-1.51-3.83,5.49,5.49,0,0,0-3.88-1.46,5.13,5.13,0,0,0-3.68,1.46,5.27,5.27,0,0,0-1.51,3.83,5.06,5.06,0,0,0,1.51,3.73A5.13,5.13,0,0,0,134.29,35.4Z"/><path class="cls-1" d="M197.81,43.59a.33.33,0,0,0-.5-.29c-1.39.86-6.09,3.24-19.24,6.08a25.57,25.57,0,0,0-13,6.75q-6.76,6.75-6.75,17.57V95.48a.37.37,0,0,0,.36.37h28.64a10.47,10.47,0,0,1-10.47,10.47H159.42a.27.27,0,0,0-.25.37l4,9.71a.78.78,0,0,0,.74.49l13,0a21,21,0,0,0,20.95-21ZM187.23,85.32H168.85V73.94q0-6.81,4.3-10.58a14.29,14.29,0,0,1,2.93-1.91,21.53,21.53,0,0,1,5.2-1.75l5.95-1.26Z"/><path class="cls-1" d="M147.64,95.53V43.59a.33.33,0,0,0-.5-.29c-1.39.86-6.1,3.24-19.25,6.08a25.61,25.61,0,0,0-13,6.75q-6.75,6.75-6.75,17.57V85.32H89.67V25.18a.28.28,0,0,0-.37-.26l-10,3.64a.26.26,0,0,0-.18.25V95.53a.31.31,0,0,0,.31.32h67.87A.33.33,0,0,0,147.64,95.53ZM137.06,85.32H118.68V73.94q0-6.81,4.3-10.58a14,14,0,0,1,2.93-1.91,21.6,21.6,0,0,1,5.19-1.75l6-1.26Z"/><path class="cls-1" d="M6.33,91a18.38,18.38,0,0,0,10.82,4.87H68.22a.31.31,0,0,0,.31-.32V43.59a.33.33,0,0,0-.5-.29c-1.39.86-6.1,3.24-19.25,6.08a25.57,25.57,0,0,0-13,6.75Q29,62.88,29,73.7V85.32H19.7a9.89,9.89,0,0,1-5.1-2.13q-3.93-3.12-3.92-9.49V54a.25.25,0,0,0-.32-.24L.18,56.62a.25.25,0,0,0-.18.24V75.44Q0,85.31,6.33,91Zm33.24-17q0-6.81,4.3-10.58a13.76,13.76,0,0,1,2.93-1.91A21.6,21.6,0,0,1,52,59.7l6-1.26V85.32H39.57Z"/><path class="cls-1" d="M218.53,27.36l-10,3.64a.27.27,0,0,0-.18.25V95.53a.31.31,0,0,0,.31.32h9.9a.32.32,0,0,0,.32-.32V27.62A.28.28,0,0,0,218.53,27.36Z"/><path class="cls-1" d="M218.66,10.34c-.45.66-1.64,1.94-4.48,2.88-4.51,1.49-5.82,4.11-5.82,6.52a4.74,4.74,0,0,0,1.39,3.17l-1.24.47a.24.24,0,0,0-.15.21v3.95a.22.22,0,0,0,.3.21l10.09-3.87a.22.22,0,0,0,.15-.21v-4a.23.23,0,0,0-.3-.21l-4.45,1.71c-2.21.39-2.73-3.5.71-4.44a15,15,0,0,0,3.82-1.91.53.53,0,0,0,.22-.43v-4A.13.13,0,0,0,218.66,10.34Z"/><path class="cls-1" d="M21.57,127.31c-3.23,1.77-5.06,3.66-6.12,6.29L2.88,164.86H9.79l2.81-7.78H30.23L33,164.86h6.9L24,125.41A10.24,10.24,0,0,1,21.57,127.31ZM13.9,152.92l7.52-20.37,7.45,20.37Z"/><path class="cls-1" d="M88.48,130.78l-6.72,28.14-9.24-31.8H71.21a4.78,4.78,0,0,0-4.58,3.43l-8.24,28.37-7.59-31.8a4.76,4.76,0,0,0-4.58,6l8.9,31.69h5.93l9-29.72,9,29.72H85l10.6-37.74H93.12A4.76,4.76,0,0,0,88.48,130.78Z"/><path class="cls-1" d="M192.63,136.9v28H199V148.21h15.58v-4.28H199V131.39h13.43a5.09,5.09,0,0,0,5-4.27h-15A9.78,9.78,0,0,0,192.63,136.9Z"/><path class="cls-1" d="M113.37,127.65a12.65,12.65,0,0,0-4.85,2.84,10,10,0,0,0-2.57,4.18,23.13,23.13,0,0,0-.79,6.68v9.27a24,24,0,0,0,.67,6.24,10,10,0,0,0,2.13,4,11.5,11.5,0,0,0,4.94,3.34,23,23,0,0,0,7.58,1.07,24.23,24.23,0,0,0,6.79-.82l5,5,3-3-3.95-3.95a10.45,10.45,0,0,0,1.15-1A10,10,0,0,0,135,157.3a23.18,23.18,0,0,0,.78-6.68V124.06c-1.93,1.21-6.16,2.68-15.31,2.68A23.87,23.87,0,0,0,113.37,127.65Zm16.82,3.16a5.34,5.34,0,0,0-.77,2.81V150c0,3.65-.57,6.26-1.74,8a4.25,4.25,0,0,1-.37.47l-3.55-3.55-3,3,2.76,2.77a12.91,12.91,0,0,1-3,.35c-3,0-5.21-.75-6.58-2.22-1.59-1.7-2.36-4.58-2.36-8.79v-7.68c0-3.65.57-6.26,1.73-8,1.38-2,3.81-3,7.21-3H127A13.53,13.53,0,0,0,130.19,130.81Z"/><path class="cls-1" d="M164.57,127.31c-3.24,1.78-5.07,3.66-6.13,6.29l-12.56,31.26h6.9l2.81-7.78h17.64l2.75,7.78h6.9L167,125.41A10,10,0,0,1,164.57,127.31Zm-7.68,25.61,7.52-20.37,7.46,20.37Z"/></svg>